<?xml version="1.0" encoding="iso-8859-1"?>
<!-- Uploaded to: SVG Repo, www.svgrepo.com, Generator: SVG Repo Mixer Tools -->
<svg fill="#000000" height="800px" width="800px" version="1.1" id="Layer_1" xmlns="http://www.w3.org/2000/svg" xmlns:xlink="http://www.w3.org/1999/xlink" 
	 viewBox="0 0 512 512" xml:space="preserve">
<g>
	<g>
		<path d="M497.443,86.532c-9.403-9.403-21.904-14.581-35.202-14.581c-13.297,0-25.798,5.178-35.2,14.581L246.608,266.966l70.4,70.4
			l180.433-180.432C516.852,137.525,516.853,105.945,497.443,86.532z"/>
	</g>
</g>
<g>
	<g>
		<path d="M271.052,334.433l-21.509-21.511l-60.599,60.598L45.019,229.594l-10.754,10.754C12.169,262.443,0,291.82,0,323.067
			c0,31.247,12.169,60.623,34.265,82.719c22.092,22.092,51.467,34.26,82.715,34.263c0.004,0,0.007,0,0.011,0
			c31.241,0,60.613-12.168,82.708-34.264l10.754-10.754l-0.001-0.001L271.052,334.433z"/>
	</g>
</g>
</svg>